<svg xmlns="http://www.w3.org/2000/svg" version="1.1" xmlns:xlink="http://www.w3.org/1999/xlink" xmlns:svgjs="http://svgjs.dev/svgjs" width="100%" height="100%" viewBox="0 0 1000 600"><rect width="1000" height="600" x="0" y="0" fill="#8e85d6"/><g><rect width="333.3333333333333" height="333.3333333333333" rx="13.333333333333334" ry="13.333333333333334" y="197.19653346029435" fill="#351ee3" transform="matrix(0.7143906499699574,0,0,0.7143906499699573,0,40.059544310836)" x="174.97433471679688"/><path d="M249.1313696730936 438.86318973721694Q239.06393209619327 438.86318973721694 226.39533839894548 437.1290856569853L226.39533839894548 437.1290856569853Q219.45892207801893 436.2620336168695 216.8577659576715 433.49228404427726Q214.25660983732402 430.72253447168504 214.61788152070562 424.46049195973757L214.61788152070562 424.46049195973757Q215.82212046531092 407.31212938855805 220.32597411813475 382.0712811096309Q224.8539125498507 356.8304328307037 231.2604637351509 333.4200277475766L231.2604637351509 333.4200277475766Q232.46470267975621 329.0847675469975 236.12558907135633 327.350663466766Q239.76239068406434 325.61655938653433 245.66316151263032 325.61655938653433L245.66316151263032 325.61655938653433Q256.2363794462649 325.61655938653433 256.2363794462649 331.51733021510023L256.2363794462649 331.51733021510023Q256.2363794462649 333.94989288320295 255.20073395390432 337.08091413917674L255.20073395390432 337.08091413917674Q250.67279552218838 350.9537467810299 246.16894186936455 374.2678127485885Q241.6650882165407 397.5818787161472 239.76239068406434 418.7523993623084L239.76239068406434 418.7523993623084Q244.96470292475925 419.25817971904263 251.5398475623042 419.25817971904263L251.5398475623042 419.25817971904263Q281.88666896635783 419.25817971904263 296.8914862161399 400.8814934243657Q311.89630346592196 382.5048071296888 311.89630346592196 351.82079882114573L311.89630346592196 351.82079882114573Q311.89630346592196 331.18014331061084 300.09476180879 319.90846678910515Q288.31730493055016 308.6367902675995 266.8095973798994 308.6367902675995L266.8095973798994 308.6367902675995Q252.93676473804635 308.6367902675995 239.32886466400643 312.9720504681786Q225.7209645899665 317.3073106687577 214.78647497295037 324.412320441929L214.78647497295037 324.412320441929Q212.5225057570924 325.9778310699159 209.92134963674494 325.9778310699159L209.92134963674494 325.9778310699159Q206.983006611908 325.9778310699159 205.24890253167638 323.4489292862448Q203.51479845144473 320.9441122814657 203.51479845144473 317.3073106687577L203.51479845144473 317.3073106687577Q203.51479845144473 313.1406439204233 204.91171562718688 310.4431486845075Q206.28454802403692 307.7697382274837 209.58416273225546 305.5057690116257L209.58416273225546 305.5057690116257Q221.55429784163215 297.3651137460939 237.66701492045112 293.10210788219115Q253.80381677816217 288.86318679718045 268.7122949123758 288.86318679718045L268.7122949123758 288.86318679718045Q289.88281555853706 288.86318679718045 305.29707404948493 296.23312913816494Q320.7354173193249 303.6030714791494 329.06875081599355 317.81309102549193Q337.3779995337702 332.04719535072655 337.3779995337702 352.1579857256351L337.3779995337702 352.1579857256351Q337.3779995337702 378.33814038135444 326.97337505238033 397.84681128396034Q316.5687505709906 417.35548218656623 296.6265536483267 428.1213783513377Q276.6843567256629 438.86318973721694 249.1313696730936 438.86318973721694L249.1313696730936 438.86318973721694ZM474.90208700769574 399.3159827963788Q477.1660562235537 399.3159827963788 478.46663428372744 401.41135855999204Q479.7672123439012 403.4826495447132 479.7672123439012 407.1194511574211L479.7672123439012 407.1194511574211Q479.7672123439012 413.88727402610294 476.46759763568264 417.88534732219256L476.46759763568264 417.88534732219256Q466.76143174216395 429.49421074818764 457.6573853209478 434.19074263214833Q448.5533388997317 438.86318973721694 435.7161517502392 438.86318973721694L435.7161517502392 438.86318973721694Q426.6843596656994 438.86318973721694 419.0735695357939 436.599220521359Q411.43869462699627 434.3593360843931 400.5042050099802 429.8554824315692L400.5042050099802 429.8554824315692Q390.6294456642167 425.5202222309902 381.42906012743214 422.7263878795059L381.42906012743214 422.7263878795059Q372.5899462740292 438.86318973721694 354.9117185672234 438.86318973721694L354.9117185672234 438.86318973721694Q345.18146789481256 438.86318973721694 339.377036181815 434.4315904210694Q333.5726044688174 430.02407588381396 333.5726044688174 423.0876595628875L333.5726044688174 423.0876595628875Q333.5726044688174 414.585732613974 341.71325973434926 408.94989435322117Q349.87799977877324 403.31405609246843 363.3895607372447 403.31405609246843L363.3895607372447 403.31405609246843L365.65352995310263 403.31405609246843L368.7845512090765 352.8564443135062Q369.82019670143706 335.51540351118985 375.02250894213194 324.24372698968426Q380.2248211828269 312.9720504681786 389.40112194071924 304.9999886548915L389.40112194071924 304.9999886548915Q397.39726853289847 298.063572333965 407.6092147831514 294.4990250579333Q417.8452458122965 290.9344777819016 429.28551578604686 290.9344777819016L429.28551578604686 290.9344777819016Q448.0234737641054 290.9344777819016 458.0909113410057 300.6647284543124Q468.1342641390139 310.37089434783115 468.1342641390139 325.9778310699159L468.1342641390139 325.9778310699159Q468.1342641390139 336.5510490035504 464.32886907406123 343.0539393044191Q460.49938923021625 349.55682960528776 453.7556511404266 349.55682960528776L453.7556511404266 349.55682960528776Q448.8905258042212 349.55682960528776 446.120776231629 347.22060605275345Q443.3510266590368 344.88438250021915 443.3510266590368 340.54912229964003L443.3510266590368 340.54912229964003Q443.3510266590368 338.98361167165314 444.0254004680158 334.8169449233188L444.0254004680158 334.8169449233188Q445.0851307392685 329.95181958711333 445.0851307392685 326.14642452216066L445.0851307392685 326.14642452216066Q445.0851307392685 318.8728212967446 440.82212487536566 314.6098154328418Q436.583203790355 310.37089434783115 427.9126833891968 310.37089434783115L427.9126833891968 310.37089434783115Q412.6429335716016 310.37089434783115 404.33368485382505 320.34199280916306Q396.0003513571563 330.313091270495 393.73638214129835 351.6281205900088L393.73638214129835 351.6281205900088L389.7623936241008 391.00673407860216Q388.895341583985 399.3159827963788 387.49842440824284 405.3853470771896L387.49842440824284 405.3853470771896Q398.6015074775038 407.31212938855805 415.24408969194906 411.4547113580002L415.24408969194906 411.4547113580002Q424.95025558546786 413.88727402610294 430.1525678261627 414.9229195184635Q435.3548800668576 415.98264978971616 439.35295336294723 415.98264978971616L439.35295336294723 415.98264978971616Q449.42039093984755 415.98264978971616 456.59765504969516 412.5866959659292Q463.7990039384349 409.21482692103444 470.2296399026271 401.74854546448154L470.2296399026271 401.74854546448154Q472.3009308873483 399.3159827963788 474.90208700769574 399.3159827963788L474.90208700769574 399.3159827963788Z " fill="#8e85d6" transform="matrix(0.7143906499699574,0,0,0.7143906499699573,0,40.059544310836)"/><path d="M633.3958534240669 438.8631860469657Q624.1806859995627 438.8631860469657 612.5845662261436 437.2758844810224L612.5845662261436 437.2758844810224Q606.2353599623705 436.4822336980507 603.8544076134555 433.94696036355793Q601.4734552645405 431.41168702906526 601.8041430907788 425.6797647076033L601.8041430907788 425.6797647076033Q602.906435844906 409.9831158888307 607.029010745342 386.8790597623227Q611.1736315008607 363.7750036358147 617.0378289528179 342.34643249558013L617.0378289528179 342.34643249558013Q618.1401217069451 338.3781785807219 621.4910916794921 336.7908770147786Q624.8200157969566 335.20357544883535 630.2212502921802 335.20357544883535L630.2212502921802 335.20357544883535Q639.8993806734179 335.20357544883535 639.8993806734179 340.604809944059L639.8993806734179 340.604809944059Q639.8993806734179 342.8314413073961 638.9514089048685 345.6974024681271L638.9514089048685 345.6974024681271Q634.8067881493498 358.39581499567345 630.6842132489137 379.7362027155778Q626.5616383484777 401.07659043548216 624.8200157969566 420.45489705303993L624.8200157969566 420.45489705303993Q629.5819204947865 420.9178600097734 635.6004389323214 420.9178600097734L635.6004389323214 420.9178600097734Q663.3782163363292 420.9178600097734 677.1127840527552 404.09687258179093Q690.8473517691813 387.2758851538085 690.8473517691813 359.1894657786451L690.8473517691813 359.1894657786451Q690.8473517691813 340.29616797290345 680.0448827787338 329.978707794272Q669.2644596433689 319.66124761564055 649.5775110546555 319.66124761564055L649.5775110546555 319.66124761564055Q636.8790985271091 319.66124761564055 624.4231904054707 323.62950153049877Q611.9672822838323 327.597755445357 601.9584640763566 334.101282694708L601.9584640763566 334.101282694708Q599.8861536985972 335.53426327507356 597.5052013496822 335.53426327507356L597.5052013496822 335.53426327507356Q594.8156070296118 335.53426327507356 593.2283054636684 333.21944849140624Q591.6410038977251 330.92667956282145 591.6410038977251 327.597755445357L591.6410038977251 327.597755445357Q591.6410038977251 323.78382251607655 592.9196634925128 321.31468674683146Q594.1762772322179 318.8675968326689 597.1965593785267 316.79528645490956L597.1965593785267 316.79528645490956Q608.1533493545519 309.34378743700904 622.9020264047751 305.4416710873985Q637.6727493100807 301.5616005928704 651.3191336061766 301.5616005928704L651.3191336061766 301.5616005928704Q670.6974402237344 301.5616005928704 684.8067874765636 308.30763224812944Q698.9381805844755 315.05366390338844 706.5660464430364 328.06071840209046Q714.1718664465147 341.089818755875 714.1718664465147 359.4981077498008L714.1718664465147 359.4981077498008Q714.1718664465147 383.46195222452815 704.6480570508548 401.31909484139015Q695.1242476551951 419.1762374582523 676.8702796468472 429.03073468015026Q658.6163116384993 438.8631860469657 633.3958534240669 438.8631860469657L633.3958534240669 438.8631860469657ZM744.0219542282817 353.63391029784356Q737.3641059933528 353.63391029784356 734.013136020806 350.5254447312047Q730.6842119033415 347.4390250196482 730.6842119033415 341.88346953884667L730.6842119033415 341.88346953884667Q730.6842119033415 336.3279140580451 735.0492912096856 332.6021645490949Q739.4143705160296 328.8543691850621 745.9178977653806 328.8543691850621L745.9178977653806 328.8543691850621Q751.8041410724204 328.8543691850621 755.4417071610404 331.7203303457931Q759.1013191047431 334.586291506524 759.1013191047431 339.81115916108735L759.1013191047431 339.81115916108735Q759.1013191047431 346.1603654248606 754.978744204307 349.8861149338108Q750.856169303871 353.63391029784356 744.0219542282817 353.63391029784356L744.0219542282817 353.63391029784356ZM742.7432946334941 438.8631860469657Q732.4258344548626 438.8631860469657 727.752113177363 431.56600801464305Q723.0783918998633 424.26882998232037 723.0783918998633 412.1877013970853L723.0783918998633 412.1877013970853Q723.0783918998633 405.0448443503404 724.886152016632 393.8675958234897Q726.7159579884833 382.6683014415565 729.5819191492143 372.9901710603188L729.5819191492143 372.9901710603188Q731.0148997295797 367.91962439133334 733.3958520784946 366.0016349991518Q735.7768044274096 364.1056914620529 741.001672081973 364.1056914620529L741.001672081973 364.1056914620529Q749.0925008972673 364.1056914620529 749.0925008972673 369.50692595727656L749.0925008972673 369.50692595727656Q749.0925008972673 373.4751798721348 746.0942646060411 387.91521495120236L746.0942646060411 387.91521495120236Q742.2803316767605 405.3755321765786 742.2803316767605 411.57041745477403L742.2803316767605 411.57041745477403Q742.2803316767605 416.3323221526039 743.5369454164658 418.8675954870967Q744.8156050112533 421.4028688215894 747.8358871575622 421.4028688215894L747.8358871575622 421.4028688215894Q750.6798024632105 421.4028688215894 754.978744204307 417.43461490673116Q759.2556400903209 413.46636099187293 766.3984971370658 404.8905233647626L766.3984971370658 404.8905233647626Q768.3164865292472 402.6638920014255 770.6974388781622 402.6638920014255L770.6974388781622 402.6638920014255Q772.7477034008389 402.6638920014255 773.9381795752964 404.5818813936069Q775.1286557497539 406.47782493070594 775.1286557497539 409.8067490481703L775.1286557497539 409.8067490481703Q775.1286557497539 416.1559553119435 772.1083736034451 419.66124627006826L772.1083736034451 419.66124627006826Q756.4117247846725 438.8631860469657 742.7432946334941 438.8631860469657L742.7432946334941 438.8631860469657ZM773.5413541838105 438.8631860469657Q767.5228357462755 438.8631860469657 765.0536999770304 432.5139797831925Q762.5845642077853 426.16477351941927 762.5845642077853 412.1877013970853L762.5845642077853 412.1877013970853Q762.5845642077853 391.5527810398224 768.470807514825 372.9901710603188L768.470807514825 372.9901710603188Q769.9037880951905 368.3825873480668 773.1445287923246 366.2441394050598Q776.4073153445415 364.1056914620529 782.2715127964987 364.1056914620529L782.2715127964987 364.1056914620529Q785.4461159283853 364.1056914620529 786.724775523173 364.89934224502457Q787.981389262878 365.6929930279961 787.981389262878 367.91962439133334L787.981389262878 367.91962439133334Q787.981389262878 370.454897725826 785.6004369139631 379.339377324092L785.6004369139631 379.339377324092Q784.0131353480198 385.68858358786525 783.0651635794703 390.45048828569514Q782.1171918109209 395.21239298352504 781.477862013527 402.20092904469203L781.477862013527 402.20092904469203Q786.724775523173 388.55454474859613 793.228302772524 379.9787071214858Q799.731830021875 371.4028694943756 806.0148987204005 367.7432575506729Q812.2759215638436 364.1056914620529 817.5228350734894 364.1056914620529L817.5228350734894 364.1056914620529Q827.8402952521209 364.1056914620529 827.8402952521209 374.42315164068424L827.8402952521209 374.42315164068424Q827.8402952521209 380.6180369188797 824.3350042939961 396.79969454946826L824.3350042939961 396.79969454946826Q821.3147221476873 410.60039983114194 821.3147221476873 415.05366255781627L821.3147221476873 415.05366255781627Q821.3147221476873 421.4028688215894 825.9223058599395 421.4028688215894L825.9223058599395 421.4028688215894Q829.096908991826 421.4028688215894 833.46198829817 417.52279832706137Q837.8270676045141 413.6206819774507 845.1242456368368 404.8905233647626L845.1242456368368 404.8905233647626Q847.0422350290183 402.6638920014255 849.4231873779332 402.6638920014255L849.4231873779332 402.6638920014255Q851.47345190061 402.6638920014255 852.6639280750675 404.5818813936069Q853.8544042495249 406.47782493070594 853.8544042495249 409.8067490481703L853.8544042495249 409.8067490481703Q853.8544042495249 416.1559553119435 850.8561679582987 419.66124627006826L850.8561679582987 419.66124627006826Q844.0219528827095 428.0607170565183 836.1736284733232 433.46195155174195Q828.3032582088543 438.8631860469657 818.3164858564611 438.8631860469657L818.3164858564611 438.8631860469657Q810.2036111860842 438.8631860469657 806.0810362856481 434.18946476946604Q801.9584613852121 429.4936976368837 801.9584613852121 420.6092180386178L801.9584613852121 420.6092180386178Q801.9584613852121 416.1559553119435 804.1850927485492 404.7362023791848L804.1850927485492 404.7362023791848Q806.235357271226 394.72738417170905 806.235357271226 390.93549709751113L806.235357271226 390.93549709751113Q806.235357271226 388.3781779079358 804.4937347197049 388.3781779079358L804.4937347197049 388.3781779079358Q802.4434701970281 388.3781779079358 798.6956748329953 393.7132748379119Q794.9699253240451 399.0263259128055 791.089854829517 407.7564845254936Q787.1877384799064 416.4866431381817 784.8067861309914 426.16477351941927L784.8067861309914 426.16477351941927Q783.0651635794703 433.61627253731984 780.7723946508855 436.2397292921427Q778.4575798672183 438.8631860469657 773.5413541838105 438.8631860469657L773.5413541838105 438.8631860469657ZM929.0969076462537 402.6638920014255Q931.169218024013 402.6638920014255 932.3596941984705 404.5818813936069Q933.550170372928 406.47782493070594 933.550170372928 409.8067490481703L933.550170372928 409.8067490481703Q933.550170372928 416.1559553119435 930.5298882266193 419.66124627006826L930.5298882266193 419.66124627006826Q923.2327101942966 428.0607170565183 915.5387067704881 433.46195155174195Q907.822657491597 438.8631860469657 897.9902061247816 438.8631860469657L897.9902061247816 438.8631860469657Q889.8993773094872 438.8631860469657 885.7768024090512 434.18946476946604Q881.6321816535327 429.4936976368837 881.6321816535327 420.6092180386178L881.6321816535327 420.6092180386178Q881.6321816535327 416.1559553119435 883.8588130168697 404.7362023791848L883.8588130168697 404.7362023791848Q885.931123394629 394.72738417170905 885.931123394629 390.93549709751113L885.931123394629 390.93549709751113Q885.931123394629 388.3781779079358 884.189500843108 388.3781779079358L884.189500843108 388.3781779079358Q882.1171904653487 388.3781779079358 878.3032575360683 393.7132748379119Q874.4893246067878 399.0263259128055 870.6974375325899 407.7564845254936Q866.8835046033095 416.4866431381817 864.5025522543946 426.16477351941927L864.5025522543946 426.16477351941927Q861.4822701080858 438.8631860469657 849.577508363511 438.8631860469657L849.577508363511 438.8631860469657Q844.8156036656811 438.8631860469657 843.3164855200681 435.44607850917106Q841.7953215193724 432.0289709713765 841.7953215193724 423.1444913731105L841.7953215193724 423.1444913731105Q841.7953215193724 418.07394470412504 841.9496425049502 415.05366255781627L841.9496425049502 415.05366255781627L842.1260093456106 402.3552500302698Q842.1260093456106 377.9063967437266 847.1083725942659 351.40727893450645Q852.1127816980038 324.8861152702039 861.8790954995716 306.87465166776394Q871.6454093011395 288.86318806532404 885.2917935972353 288.86318806532404L885.2917935972353 288.86318806532404Q892.5889716295579 288.86318806532404 897.1083719214798 295.12421090876705Q901.6498180684843 301.4072796072926 901.6498180684843 311.39405195968584L901.6498180684843 311.39405195968584Q901.6498180684843 327.4434344597792 892.2803296584024 344.66124727924745Q882.9108412483204 361.8790600987158 861.7909120792414 384.8949328048936L861.7909120792414 384.8949328048936Q861.3279491225079 393.1400826057657 861.3279491225079 401.8702412184538L861.3279491225079 401.8702412184538Q866.5528167770714 388.3781779079358 872.9902064611748 379.8905237011557Q879.427596145278 371.4028694943756 885.688618988721 367.7432575506729Q891.949641832164 364.1056914620529 897.19655534181 364.1056914620529L897.19655534181 364.1056914620529Q907.5140155204414 364.1056914620529 907.5140155204414 374.42315164068424L907.5140155204414 374.42315164068424Q907.5140155204414 380.6180369188797 904.0307704173991 396.79969454946826L904.0307704173991 396.79969454946826Q901.0104882710904 410.60039983114194 901.0104882710904 415.05366255781627L901.0104882710904 415.05366255781627Q901.0104882710904 421.4028688215894 905.6180719833425 421.4028688215894L905.6180719833425 421.4028688215894Q908.792675115229 421.4028688215894 913.1577544215733 417.52279832706137Q917.5228337279173 413.6206819774507 924.8200117602399 404.8905233647626L924.8200117602399 404.8905233647626Q926.7159552973388 402.6638920014255 929.0969076462537 402.6638920014255L929.0969076462537 402.6638920014255ZM881.9628694797708 304.5818827391792Q879.0969083190399 304.5818827391792 875.6136632159977 312.76089497480365Q872.1083722578729 320.9178613553457 868.8676315607387 334.80675005734946Q865.6048450085219 348.69563875935336 863.5545804858451 365.05366323060235L863.5545804858451 365.05366323060235Q873.3870318526605 353.45754345718325 879.8244215367639 339.81115916108735Q886.2397653657847 326.16477486499156 886.2397653657847 315.05366390338844L886.2397653657847 315.05366390338844Q886.2397653657847 309.9831172344029 885.1374726116575 307.2714770592498Q884.0131340024476 304.5818827391792 881.9628694797708 304.5818827391792L881.9628694797708 304.5818827391792ZM1022.9020210224861 402.6638920014255Q1024.9743314002453 402.6638920014255 1026.164807574703 404.5818813936069Q1027.3552837491604 406.47782493070594 1027.3552837491604 409.8067490481703L1027.3552837491604 409.8067490481703Q1027.3552837491604 416.1559553119435 1024.3350016028517 419.66124627006826L1024.3350016028517 419.66124627006826Q1017.522832382345 428.0607170565183 1009.4981411322983 433.46195155174195Q1001.4734498822517 438.8631860469657 991.3323565442805 438.8631860469657L991.3323565442805 438.8631860469657Q977.3552844219465 438.8631860469657 970.6092527666875 426.16477351941927Q963.8632211114285 413.46636099187293 963.8632211114285 393.316449446426L963.8632211114285 393.316449446426Q963.8632211114285 373.93814282886825 968.8676302151664 349.18064757116935Q973.8720393189043 324.42315231347044 983.6163072653895 306.63214726185595Q993.3826210669573 288.86318806532404 1006.8746843774754 288.86318806532404L1006.8746843774754 288.86318806532404Q1014.5025502360362 288.86318806532404 1018.8676295423803 295.9178616917387Q1023.2327088487244 302.99458117323593 1023.2327088487244 316.1559566575158L1023.2327088487244 316.1559566575158Q1023.2327088487244 335.04925446325745 1012.7609276845152 359.9831165616168Q1002.2671006652233 384.8949328048936 984.3438204831135 409.3437860914369L984.3438204831135 409.3437860914369Q985.4461132372409 415.84731334078793 987.9813865717337 418.6250910811886Q990.538705761309 421.4028688215894 994.6612806617451 421.4028688215894L994.6612806617451 421.4028688215894Q1001.164807911096 421.4028688215894 1006.0810335945038 417.67711931263915Q1010.9972592779114 413.9513698036889 1018.6251251364723 404.8905233647626L1018.6251251364723 404.8905233647626Q1020.5210686735712 402.6638920014255 1022.9020210224861 402.6638920014255L1022.9020210224861 402.6638920014255ZM1003.3914392744331 304.5818827391792Q999.7318273307305 304.5818827391792 995.1242436184785 317.743258223459Q990.538705761309 330.92667956282145 987.0334148031842 350.459307165957Q983.550169700142 369.96988891401 983.2194818739038 387.91521495120236L983.2194818739038 387.91521495120236Q994.5069596761672 369.33055911661626 1001.164807911096 350.67976571678247Q1007.8226561460248 332.0289723169487 1007.8226561460248 316.6409654693318L1007.8226561460248 316.6409654693318Q1007.8226561460248 304.5818827391792 1003.3914392744331 304.5818827391792L1003.3914392744331 304.5818827391792ZM1035.2917915788769 353.63391029784356Q1028.633943343948 353.63391029784356 1025.282973371401 350.5254447312047Q1021.9540492539368 347.4390250196482 1021.9540492539368 341.88346953884667L1021.9540492539368 341.88346953884667Q1021.9540492539368 336.3279140580451 1026.3191285602807 332.6021645490949Q1030.684207866625 328.8543691850621 1037.187735115976 328.8543691850621L1037.187735115976 328.8543691850621Q1043.0739784230154 328.8543691850621 1046.7115445116356 331.7203303457931Q1050.3711564553382 334.586291506524 1050.3711564553382 339.81115916108735L1050.3711564553382 339.81115916108735Q1050.3711564553382 346.1603654248606 1046.248581554902 349.8861149338108Q1042.126006654466 353.63391029784356 1035.2917915788769 353.63391029784356L1035.2917915788769 353.63391029784356ZM1034.0131319840893 438.8631860469657Q1023.6956718054579 438.8631860469657 1019.0219505279581 431.56600801464305Q1014.3482292504584 424.26882998232037 1014.3482292504584 412.1877013970853L1014.3482292504584 412.1877013970853Q1014.3482292504584 405.0448443503404 1016.1559893672271 393.8675958234897Q1017.9857953390784 382.6683014415565 1020.8517564998094 372.9901710603188L1020.8517564998094 372.9901710603188Q1022.284737080175 367.91962439133334 1024.66568942909 366.0016349991518Q1027.0466417780049 364.1056914620529 1032.271509432568 364.1056914620529L1032.271509432568 364.1056914620529Q1040.3623382478625 364.1056914620529 1040.3623382478625 369.50692595727656L1040.3623382478625 369.50692595727656Q1040.3623382478625 373.4751798721348 1037.3641019566362 387.91521495120236L1037.3641019566362 387.91521495120236Q1033.5501690273559 405.3755321765786 1033.5501690273559 411.57041745477403L1033.5501690273559 411.57041745477403Q1033.5501690273559 416.3323221526039 1034.806782767061 418.8675954870967Q1036.0854423618484 421.4028688215894 1039.1057245081574 421.4028688215894L1039.1057245081574 421.4028688215894Q1041.9496398138058 421.4028688215894 1046.248581554902 417.43461490673116Q1050.5254774409161 413.46636099187293 1057.668334487661 404.8905233647626L1057.668334487661 404.8905233647626Q1059.5863238798424 402.6638920014255 1061.9672762287573 402.6638920014255L1061.9672762287573 402.6638920014255Q1064.017540751434 402.6638920014255 1065.2080169258916 404.5818813936069Q1066.3984931003492 406.47782493070594 1066.3984931003492 409.8067490481703L1066.3984931003492 409.8067490481703Q1066.3984931003492 416.1559553119435 1063.3782109540402 419.66124627006826L1063.3782109540402 419.66124627006826Q1047.6815621352675 438.8631860469657 1034.0131319840893 438.8631860469657L1034.0131319840893 438.8631860469657ZM1064.8111915344057 438.8631860469657Q1058.7926730968707 438.8631860469657 1056.3235373276257 432.5139797831925Q1053.8544015583807 426.16477351941927 1053.8544015583807 412.1877013970853L1053.8544015583807 412.1877013970853Q1053.8544015583807 391.5527810398224 1059.74064486542 372.9901710603188L1059.74064486542 372.9901710603188Q1061.1736254457855 368.3825873480668 1064.4143661429198 366.2441394050598Q1067.6771526951366 364.1056914620529 1073.541350147094 364.1056914620529L1073.541350147094 364.1056914620529Q1076.7159532789806 364.1056914620529 1077.9946128737681 364.89934224502457Q1079.2512266134731 365.6929930279961 1079.2512266134731 367.91962439133334L1079.2512266134731 367.91962439133334Q1079.2512266134731 370.454897725826 1076.8702742645582 379.339377324092L1076.8702742645582 379.339377324092Q1075.2829726986151 385.68858358786525 1074.3350009300657 390.45048828569514Q1073.387029161516 395.21239298352504 1072.7476993641221 402.20092904469203L1072.7476993641221 402.20092904469203Q1077.9946128737681 388.55454474859613 1084.4981401231194 379.9787071214858Q1091.0016673724704 371.4028694943756 1097.2847360709957 367.7432575506729Q1103.5457589144387 364.1056914620529 1108.7926724240847 364.1056914620529L1108.7926724240847 364.1056914620529Q1119.110132602716 364.1056914620529 1119.110132602716 374.42315164068424L1119.110132602716 374.42315164068424Q1119.110132602716 380.6180369188797 1115.6048416445913 396.79969454946826L1115.6048416445913 396.79969454946826Q1112.5845594982825 410.60039983114194 1112.5845594982825 415.05366255781627L1112.5845594982825 415.05366255781627Q1112.5845594982825 421.4028688215894 1117.1921432105346 421.4028688215894L1117.1921432105346 421.4028688215894Q1120.3667463424213 421.4028688215894 1124.7318256487652 417.52279832706137Q1129.0969049551093 413.6206819774507 1136.394082987432 404.8905233647626L1136.394082987432 404.8905233647626Q1138.3120723796135 402.6638920014255 1140.6930247285284 402.6638920014255L1140.6930247285284 402.6638920014255Q1142.7432892512052 402.6638920014255 1143.9337654256626 404.5818813936069Q1145.12424160012 406.47782493070594 1145.12424160012 409.8067490481703L1145.12424160012 409.8067490481703Q1145.12424160012 416.1559553119435 1142.126005308894 419.66124627006826L1142.126005308894 419.66124627006826Q1135.2917902333047 428.0607170565183 1127.4434658239184 433.46195155174195Q1119.5730955594495 438.8631860469657 1109.5863232070565 438.8631860469657L1109.5863232070565 438.8631860469657Q1101.4734485366794 438.8631860469657 1097.3508736362433 434.18946476946604Q1093.2282987358071 429.4936976368837 1093.2282987358071 420.6092180386178L1093.2282987358071 420.6092180386178Q1093.2282987358071 416.1559553119435 1095.4549300991443 404.7362023791848L1095.4549300991443 404.7362023791848Q1097.5051946218214 394.72738417170905 1097.5051946218214 390.93549709751113L1097.5051946218214 390.93549709751113Q1097.5051946218214 388.3781779079358 1095.7635720703001 388.3781779079358L1095.7635720703001 388.3781779079358Q1093.7133075476233 388.3781779079358 1089.9655121835904 393.7132748379119Q1086.2397626746401 399.0263259128055 1082.3596921801122 407.7564845254936Q1078.4575758305016 416.4866431381817 1076.0766234815867 426.16477351941927L1076.0766234815867 426.16477351941927Q1074.3350009300657 433.61627253731984 1072.042232001481 436.2397292921427Q1069.7274172178136 438.8631860469657 1064.8111915344057 438.8631860469657L1064.8111915344057 438.8631860469657ZM1220.3667449968489 402.6638920014255Q1222.4390553746084 402.6638920014255 1223.6295315490656 404.5818813936069Q1224.8200077235233 406.47782493070594 1224.8200077235233 409.8067490481703L1224.8200077235233 409.8067490481703Q1224.8200077235233 416.1559553119435 1221.7997255772143 419.66124627006826L1221.7997255772143 419.66124627006826Q1214.5025475448915 428.0607170565183 1206.8085441210833 433.46195155174195Q1199.092494842192 438.8631860469657 1189.2600434753767 438.8631860469657L1189.2600434753767 438.8631860469657Q1181.1692146600826 438.8631860469657 1177.0466397596465 434.18946476946604Q1172.9020190041279 429.4936976368837 1172.9020190041279 420.6092180386178L1172.9020190041279 420.6092180386178Q1172.9020190041279 416.1559553119435 1175.128650367465 404.7362023791848L1175.128650367465 404.7362023791848Q1177.2009607452244 394.72738417170905 1177.2009607452244 390.93549709751113L1177.2009607452244 390.93549709751113Q1177.2009607452244 388.3781779079358 1175.4593381937032 388.3781779079358L1175.4593381937032 388.3781779079358Q1173.3870278159438 388.3781779079358 1169.5730948866635 393.7132748379119Q1165.7591619573832 399.0263259128055 1161.9672748831852 407.7564845254936Q1158.1533419539046 416.4866431381817 1155.7723896049897 426.16477351941927L1155.7723896049897 426.16477351941927Q1152.752107458681 438.8631860469657 1140.8473457141063 438.8631860469657L1140.8473457141063 438.8631860469657Q1136.0854410162763 438.8631860469657 1134.5863228706633 435.44607850917106Q1133.0651588699675 432.0289709713765 1133.0651588699675 423.1444913731105L1133.0651588699675 423.1444913731105Q1133.0651588699675 418.07394470412504 1133.2194798555454 415.05366255781627L1133.2194798555454 415.05366255781627L1133.3958466962058 402.3552500302698Q1133.3958466962058 377.9063967437266 1138.3782099448613 351.40727893450645Q1143.3826190485988 324.8861152702039 1153.1489328501668 306.87465166776394Q1162.9152466517346 288.86318806532404 1176.5616309478305 288.86318806532404L1176.5616309478305 288.86318806532404Q1183.8588089801533 288.86318806532404 1188.378209272075 295.12421090876705Q1192.9196554190794 301.4072796072926 1192.9196554190794 311.39405195968584L1192.9196554190794 311.39405195968584Q1192.9196554190794 327.4434344597792 1183.5501670089975 344.66124727924745Q1174.1806785989156 361.8790600987158 1153.0607494298365 384.8949328048936L1153.0607494298365 384.8949328048936Q1152.597786473103 393.1400826057657 1152.597786473103 401.8702412184538L1152.597786473103 401.8702412184538Q1157.8226541276665 388.3781779079358 1164.26004381177 379.8905237011557Q1170.6974334958732 371.4028694943756 1176.9584563393164 367.7432575506729Q1183.2194791827592 364.1056914620529 1188.4663926924052 364.1056914620529L1188.4663926924052 364.1056914620529Q1198.7838528710367 364.1056914620529 1198.7838528710367 374.42315164068424L1198.7838528710367 374.42315164068424Q1198.7838528710367 380.6180369188797 1195.3006077679943 396.79969454946826L1195.3006077679943 396.79969454946826Q1192.2803256216857 410.60039983114194 1192.2803256216857 415.05366255781627L1192.2803256216857 415.05366255781627Q1192.2803256216857 421.4028688215894 1196.8879093339376 421.4028688215894L1196.8879093339376 421.4028688215894Q1200.062512465824 421.4028688215894 1204.4275917721684 417.52279832706137Q1208.7926710785123 413.6206819774507 1216.089849110835 404.8905233647626L1216.089849110835 404.8905233647626Q1217.985792647934 402.6638920014255 1220.3667449968489 402.6638920014255L1220.3667449968489 402.6638920014255ZM1173.2327068303662 304.5818827391792Q1170.366745669635 304.5818827391792 1166.8835005665928 312.76089497480365Q1163.378209608468 320.9178613553457 1160.1374689113338 334.80675005734946Q1156.874682359117 348.69563875935336 1154.8244178364403 365.05366323060235L1154.8244178364403 365.05366323060235Q1164.6568692032556 353.45754345718325 1171.094258887359 339.81115916108735Q1177.50960271638 326.16477486499156 1177.50960271638 315.05366390338844L1177.50960271638 315.05366390338844Q1177.50960271638 309.9831172344029 1176.4073099622528 307.2714770592498Q1175.2829713530427 304.5818827391792 1173.2327068303662 304.5818827391792L1173.2327068303662 304.5818827391792Z " fill="#351ee3" transform="matrix(0.7143906499699574,0,0,0.7143906499699573,0,40.059544310836)"/></g></svg>